<svg preserveAspectRatio="xMidYMid meet" data-bbox="259.82 293.95 2877.37 412.11" viewBox="259.82 293.95 2877.37 412.11" xmlns="http://www.w3.org/2000/svg" data-type="color" role="img" aria-labelledby="svgcid--48ngo4-tc5n5t"><defs><style>#comp-jqc7r2sa svg [data-color="1"] {fill: #ECFBE6;}</style></defs><title id="svgcid--48ngo4-tc5n5t">Ungrammary</title>
    <g>
        <path d="M445.3 590.43l-3.88-39.33c-10.2 22.34-30.59 44.19-75.26 44.19-45.15 0-74.29-22.34-74.29-81.08V371.94h-32.05v-12.62h100.52v162.17c0 38.35 6.3 52.43 29.12 52.43 27.19 0 50.5-29.62 50.5-66.51V371.94h-29.61v-12.62h98.06v218.49h32.05v12.62z" fill="#181221" data-color="1"></path>
        <path fill="#181221" d="M799.84 660.02v46.04H290.93v-46.04h508.91z" data-color="1"></path>
        <path d="M651.53 358.58v43.06c10.53-23.94 30.63-47.85 78-47.85 44 0 72.27 22 72.27 79.92v140.23h31.6v12.45H706.58v-12.45h27.75v-147.4c0-37.81-7.18-50.26-27.75-50.26-28.73 0-55.05 31.59-55.05 73.23v124.43h28.25v12.45H552.94v-12.45h31.11V371h-31.11v-12.42z" fill="#181221" data-color="1"></path>
        <path d="M956.06 513.64a195.87 195.87 0 0 1-35.88-3.83c-17.24 11.49-25.38 19.63-25.38 24.42s4.79 7.18 23.94 7.18h57c55 0 102.44 12 102.44 74.17 0 52.18-35.43 90.47-132.59 90.47-74.66 0-108.65-20.1-108.65-53.6 0-24.9 19.62-34 35.9-38.29l21.06 11.48a64.1 64.1 0 0 0-4.84 25.36c0 22.5 14.84 42.6 66.06 42.6 55.51 0 84.72-22.49 84.72-54.56 0-26.81-15.8-36.85-65.11-36.85h-54.07c-45.48 0-60.32-18.18-60.32-38.29 0-22 15.32-35.9 46.43-57.92-33-11.48-47.38-35.42-47.38-71.31 0-43.56 29.67-80.88 97.16-80.88 17.23 0 33.49 3.34 47.86 11-2.4-35.9 14.36-70.84 52.17-70.84 20.59 0 35.9 12.93 35.9 33 0 14.36-10.54 27.75-26.32 27.75-12.93 0-22-8.12-24.9-14.83l11.49-13.4c-1-7.66-5.26-12-13.39-12-11 0-22.5 12.45-22.5 45a110.25 110.25 0 0 0 .47 12.45c18.2 13.39 30.16 32.07 30.16 59.82 0 51.75-35.9 81.9-91.43 81.9zm-1.42-12.93c19.62 0 30.63-11 30.63-66.52 0-56-10.06-68.92-30.15-68.92s-32.56 12-32.56 69.4c0 53.61 11.01 66.04 32.08 66.04z" fill="#181221" data-color="1"></path>
        <path d="M1189.75 455.73v118.21h42.6v12.45h-141.19v-12.45h31.11V371h-31.11v-12.42h98.59v44.5c10.06-34 33.5-49.29 61.27-49.29 29.19 0 49.29 18.66 49.29 49.77 0 27.29-13.87 40.68-34.46 40.68-19.14 0-33.5-10.53-33.5-35.42a71.88 71.88 0 0 1 1.44-13.88h14.84a25.06 25.06 0 0 0 2.39-10.52c0-9.1-6.7-11-12.92-11-25.85-.01-48.35 39.23-48.35 82.31z" fill="#181221" data-color="1"></path>
        <path d="M1442.09 472v-34.94c0-52.16-8.14-71.79-37.33-71.79-16.76 0-30.15 5.74-30.15 18.67a36 36 0 0 0 1.43 9.56H1389a54 54 0 0 1 3.82 20.11c0 20.1-14.83 32.07-34.46 32.07-23 0-33.5-13.89-33.5-34.94 0-37.33 36.85-56.95 91.42-56.95 66.52 0 92.86 21 92.86 90.45v94.28c0 20.11 5.73 26.82 14.83 26.82 9.57 0 15.8-7.66 19.15-46l11 1c-2.4 52.66-18.18 70.84-55.52 70.84-32.06 0-49.78-11.48-54.56-34-10.54 22.5-30.63 34-61.26 34-34.94 0-68.46-12-68.46-56.95 0-49.31 41.66-62.23 106.27-62.23zm0 51.69V484h-11c-34.46 0-46.9 16.74-46.9 48.82 0 28.24 7.17 37.81 23 37.81 17.2-.03 34.9-17.26 34.9-46.94z" fill="#181221" data-color="1"></path>
        <path d="M1662.87 358.58v43.06c9.58-23 27.28-47.85 72.27-47.85 34.94 0 58.87 14.83 67 51.68 10-24.4 31.11-51.68 75.62-51.68 40.68 0 69.4 21 69.4 79.92v140.23h31.6v12.45h-125.4v-12.45h26.33V423.65c0-38.29-6.71-48.33-24.89-48.33-26.81 0-49.78 29.2-49.78 71.31v127.31h26.8v12.45h-120.6v-12.45h26.32V424.61c0-39.25-6.71-49.29-24.42-49.29-27.28 0-50.25 31.59-50.25 73.23v125.39h26.8v12.45h-125.4v-12.45h31.12V371h-31.12v-12.42z" fill="#181221" data-color="1"></path>
        <path d="M2091 358.58v43.06c9.58-23 27.29-47.85 72.27-47.85 34.94 0 58.88 14.83 67 51.68 10-24.4 31.11-51.68 75.62-51.68 40.67 0 69.4 21 69.4 79.92v140.23h31.59v12.45h-125.43v-12.45h26.34V423.65c0-38.29-6.71-48.33-24.9-48.33-26.8 0-49.77 29.2-49.77 71.31v127.31h26.8v12.45h-120.61v-12.45h26.33V424.61c0-39.25-6.72-49.29-24.42-49.29-27.28 0-50.26 31.59-50.26 73.23v125.39h26.81v12.45h-125.4v-12.45h31.11V371h-31.11v-12.42z" fill="#181221" data-color="1"></path>
        <path d="M2553.52 472v-34.94c0-52.16-8.14-71.79-37.33-71.79-16.76 0-30.15 5.74-30.15 18.67a36 36 0 0 0 1.43 9.56h12.92a53.84 53.84 0 0 1 3.83 20.11c0 20.1-14.83 32.07-34.46 32.07-23 0-33.5-13.89-33.5-34.94 0-37.33 36.85-56.95 91.42-56.95 66.52 0 92.85 21 92.85 90.45v94.28c0 20.11 5.74 26.82 14.84 26.82 9.57 0 15.8-7.66 19.15-46l11 1c-2.4 52.66-18.18 70.84-55.53 70.84-32 0-49.77-11.48-54.55-34-10.54 22.5-30.63 34-61.26 34-34.94 0-68.46-12-68.46-56.95 0-49.31 41.66-62.23 106.27-62.23zm0 51.69V484h-11c-34.46 0-46.91 16.74-46.91 48.82 0 28.24 7.18 37.81 23 37.81 17.21-.03 34.91-17.26 34.91-46.94z" fill="#181221" data-color="1"></path>
        <path d="M2774.28 455.73v118.21h42.6v12.45h-141.19v-12.45h31.11V371h-31.11v-12.42h98.59v44.5c10-34 33.5-49.29 61.26-49.29 29.21 0 49.3 18.66 49.3 49.77 0 27.29-13.87 40.68-34.46 40.68-19.15 0-33.5-10.53-33.5-35.42a71.88 71.88 0 0 1 1.44-13.88h14.84a25.18 25.18 0 0 0 2.38-10.52c0-9.1-6.69-11-12.92-11-25.85-.01-48.34 39.23-48.34 82.31z" fill="#181221" data-color="1"></path>
        <path d="M2890.7 358.58h124.43V371h-32.07l56.49 158L3096 371h-33v-12.42h74.19V371h-23.46l-93.8 254.15c-23 61.75-39.25 80.89-77.06 80.89-35.9 0-53.6-20.58-53.6-45 0-23.92 13.87-37.33 33.5-37.33 18.66 0 31.59 8.62 31.59 28.25a64.43 64.43 0 0 1-2.87 17.22h-15.8a25.1 25.1 0 0 0-2.88 11c0 7.18 5.75 11.95 17.24 11.95 25.36 0 38.77-26.8 56-76.1l10.06-29.67H2997L2911.75 371h-21.05z" fill="#181221" data-color="1"></path>
    </g>
</svg>